<?xml version="1.0"?>
<svg xmlns="http://www.w3.org/2000/svg" xmlns:xlink="http://www.w3.org/1999/xlink" version="1.1" id="Layer_1" x="0px" y="0px" viewBox="0 0 512.001 512.001" style="enable-background:new 0 0 512.001 512.001;" xml:space="preserve" width="512px" height="512px" class=""><g><path style="fill:#ECEEF1" d="M426.667,325.178h-409.6C7.641,325.178,0,317.538,0,308.112V17.978C0,8.552,7.641,0.912,17.067,0.912  h409.6c9.426,0,17.067,7.641,17.067,17.067v290.133C443.733,317.538,436.093,325.178,426.667,325.178z" data-original="#ECEEF1" class=""/><path style="fill:#D9DDE2" d="M25.6,308.112V17.978c0-9.426,7.642-17.067,17.067-17.067h-25.6C7.642,0.912,0,8.552,0,17.978  v290.133c0,9.426,7.642,17.067,17.067,17.067h25.6C33.242,325.178,25.6,317.538,25.6,308.112z" data-original="#D9DDE2"/><path style="fill:#3CBDE8" d="M443.733,17.978c0-9.426-7.642-17.067-17.067-17.067h-409.6C7.642,0.912,0,8.552,0,17.978v85.333  h443.733V17.978z" data-original="#3CBDE8" class=""/><path style="fill:#2C9DD4" d="M42.667,0.912h-25.6C7.642,0.912,0,8.552,0,17.978v85.333h25.6V17.978  C25.6,8.553,33.242,0.912,42.667,0.912z" data-original="#2C9DD4"/><path style="fill:#B4BBC6" d="M307.2,197.178H136.533c-4.713,0-8.533-3.821-8.533-8.533v-42.667c0-4.713,3.821-8.533,8.533-8.533  H307.2c4.713,0,8.533,3.821,8.533,8.533v42.667C315.733,193.357,311.913,197.178,307.2,197.178z" data-original="#B4BBC6" class=""/><rect x="136.533" y="145.974" style="fill:#FFFFFF" width="170.667" height="42.667" data-original="#FFFFFF" class=""/><path style="fill:#B4BBC6" d="M307.2,273.978H136.533c-4.713,0-8.533-3.821-8.533-8.533v-42.667c0-4.713,3.821-8.533,8.533-8.533  H307.2c4.713,0,8.533,3.821,8.533,8.533v42.667C315.733,270.157,311.913,273.978,307.2,273.978z" data-original="#B4BBC6" class=""/><rect x="136.533" y="222.774" style="fill:#FFFFFF" width="170.667" height="42.667" data-original="#FFFFFF" class=""/><circle style="fill:#69788D" cx="247.467" cy="52.112" r="25.6" data-original="#69788D" class=""/><circle style="fill:#FFDB66" cx="247.467" cy="52.112" r="8.533" data-original="#FFDB66" class=""/><circle style="fill:#69788D" cx="315.733" cy="52.112" r="25.6" data-original="#69788D" class=""/><circle style="fill:#1270E4" cx="315.733" cy="52.112" r="8.533" data-original="#7EC97D" class="" data-old_color="#7EC97D"/><circle style="fill:#69788D" cx="384" cy="52.112" r="25.6" data-original="#69788D" class=""/><circle style="fill:#FF8C78" cx="384" cy="52.112" r="8.533" data-original="#FF8C78" class=""/><g>
	<circle style="fill:#56677E" cx="170.667" cy="167.307" r="8.533" data-original="#56677E" class=""/>
	<circle style="fill:#56677E" cx="204.8" cy="167.307" r="8.533" data-original="#56677E" class=""/>
	<circle style="fill:#56677E" cx="238.933" cy="167.307" r="8.533" data-original="#56677E" class=""/>
	<circle style="fill:#56677E" cx="273.067" cy="167.307" r="8.533" data-original="#56677E" class=""/>
</g><path style="fill:#FFDB66" d="M508.301,421.588l-128,88c-2.912,2.002-6.756,2.002-9.668,0l-128-88  c-2.316-1.591-3.699-4.222-3.699-7.031V212.794c0-4.107,2.925-7.631,6.961-8.387l128-24c1.039-0.195,2.106-0.195,3.146,0l128,24  c4.036,0.756,6.961,4.281,6.961,8.387v201.762C512,417.366,510.617,419.996,508.301,421.588z" data-original="#FFDB66" class=""/><path style="fill:#F7C14D" d="M245.894,204.407c-4.036,0.756-6.961,4.281-6.961,8.387v201.762c0,2.81,1.383,5.44,3.699,7.031  l56.034,38.524v-265.6L245.894,204.407z" data-original="#F7C14D" class=""/><polygon style="fill:#FFE9C4" points="452.267,194.512 410.133,186.612 410.133,489.078 452.267,460.112 " data-original="#FFE9C4" class=""/><path style="fill:#4087E0" d="M256,410.068V219.876l119.467-22.4l119.467,22.4v190.192l-114.633,78.81  c-2.912,2.002-6.756,2.002-9.668,0L256,410.068z" data-original="#59AD57" class="active-path" data-old_color="#59AD57"/><polygon style="fill:#1270E4" points="273.067,401.09 273.067,234.04 375.467,214.84 477.867,234.04 477.867,401.09   375.467,471.49 " data-original="#7EC97D" class="" data-old_color="#7EC97D"/><path style="fill:#D7D7FF" d="M418.133,359.312H332.8c-18.851,0-34.133,15.282-34.133,34.133V439.4l71.966,49.476  c2.912,2.002,6.756,2.002,9.668,0l71.966-49.475v-45.955C452.267,374.594,436.985,359.312,418.133,359.312z" data-original="#B8E3A8" class="" data-old_color="#B8E3A8"/><path style="fill:#1270E4" d="M298.667,418.69v20.711l71.966,49.476c2.912,2.002,6.756,2.002,9.668,0l71.966-49.476V418.69  l-71.966,49.476c-2.912,2.002-6.756,2.002-9.668,0L298.667,418.69z" data-original="#7EC97D" class="" data-old_color="#7EC97D"/><circle style="fill:#D7D7FF" cx="375.467" cy="299.574" r="59.733" data-original="#B8E3A8" class="" data-old_color="#B8E3A8"/></g> </svg>
