<?xml version="1.0"?>
<svg xmlns="http://www.w3.org/2000/svg" xmlns:xlink="http://www.w3.org/1999/xlink" version="1.1" id="Capa_1" x="0px" y="0px" viewBox="0 0 512 512" style="enable-background:new 0 0 512 512;" xml:space="preserve" width="512px" height="512px" class=""><g><path style="fill:#E3E9ED" d="M512,95.39v321.221c0,18.488-15,33.488-33.499,33.488H33.488C14.989,450.099,0,435.098,0,416.611  V95.39c0-18.5,14.989-33.488,33.488-33.488h445.013C497,61.901,512,76.89,512,95.39z" data-original="#EAEAEA" class="active-path" data-old_color="#EAEAEA"/><path style="fill:#BCBCBC;" d="M512,95.388v52.585H0.002V95.388c0-18.5,14.989-33.488,33.488-33.488H478.5  C497,61.899,512,76.888,512,95.388z" data-original="#BCBCBC" class=""/><circle style="fill:#FB5252" cx="53.353" cy="104.092" r="17.248" data-original="#F9572B" class="" data-old_color="#F9572B"/><circle style="fill:#FCC63D;" cx="111.428" cy="104.092" r="17.248" data-original="#FCC63D"/><circle style="fill:#005DA4" cx="169.493" cy="104.092" r="17.248" data-original="#45B8C4" class="" data-old_color="#45B8C4"/><path style="fill:#FB5252" d="M232.928,389.248c-2.512-5.566-5.568-10.835-9.104-15.735c-2.528-3.502-3.183-8.016-1.719-12.079  l4.805-13.339c2.142-5.945-0.282-12.571-5.755-15.73l-24.714-14.267c-5.472-3.159-12.421-1.945-16.498,2.882l-9.235,10.932  c-2.754,3.26-6.95,4.878-11.197,4.449c-2.994-0.302-6.031-0.459-9.106-0.459c-3.069,0-6.097,0.157-9.084,0.458  c-4.292,0.433-8.522-1.256-11.307-4.552l-9.145-10.825c-4.077-4.826-11.027-6.041-16.499-2.881l-24.709,14.266  c-5.471,3.159-7.894,9.781-5.755,15.726l4.803,13.344c1.462,4.063,0.807,8.574-1.72,12.076c-3.511,4.866-6.549,10.096-9.048,15.621  c-1.792,3.961-5.354,6.838-9.633,7.608l-13.94,2.511c-6.217,1.12-10.739,6.531-10.739,12.847v24.945  c0,7.21,5.844,13.054,13.054,13.054h62.21c-4.012-6.99-6.301-15.088-6.301-23.73c0-16.635,8.495-31.295,21.4-39.863  c7.671-5.096,16.899-8.033,26.825-7.95c25.311,0.212,46.361,20.568,47.366,45.86c0.372,9.374-1.95,18.168-6.252,25.683h62.2  c7.21,0,13.054-5.844,13.054-13.054V412.1c0-6.316-4.522-11.727-10.739-12.847l-13.937-2.511  C238.273,395.977,234.697,393.171,232.928,389.248z" data-original="#F9572B" class="" data-old_color="#F9572B"/><path style="fill:#005DA4" d="M456.324,283.447c-0.328-5.952-1.243-11.826-2.712-17.539c-1.108-4.313-0.061-8.892,2.865-12.25  l8.946-10.27c4.28-4.913,4.427-12.187,0.349-17.27l-17.428-21.721c-4.078-5.083-11.213-6.516-16.937-3.401l-11.958,6.507  c-3.906,2.125-8.595,2.16-12.563,0.153c-2.619-1.325-5.324-2.534-8.114-3.62c-2.794-1.087-5.607-2.024-8.432-2.817  c-4.281-1.202-7.714-4.396-9.158-8.602l-4.418-12.876c-2.115-6.165-8.341-9.93-14.783-8.938l-27.526,4.235  c-6.441,0.991-11.247,6.452-11.412,12.966l-0.346,13.616c-0.113,4.451-2.436,8.536-6.167,10.966  c-4.942,3.219-9.587,6.931-13.85,11.096c-3.177,3.103-7.658,4.472-12.016,3.621l-13.345-2.608c-6.396-1.25-12.769,2.26-15.131,8.333  l-10.097,25.954c-2.363,6.073-0.037,12.966,5.522,16.367l11.599,7.096c3.789,2.318,6.167,6.356,6.41,10.79  c0.327,5.954,1.243,11.828,2.712,17.544c1.108,4.313,0.06,8.892-2.865,12.249l-8.943,10.266c-4.281,4.913-4.428,12.188-0.35,17.27  l17.429,21.722c4.078,5.083,11.212,6.516,16.936,3.401l11.957-6.505c3.906-2.124,8.594-2.159,12.562-0.153  c2.62,1.325,5.326,2.536,8.12,3.623c2.791,1.086,5.603,2.022,8.428,2.815c4.281,1.202,7.713,4.395,9.156,8.601l4.418,12.874  c2.116,6.164,8.341,9.928,14.782,8.937l27.526-4.235c6.441-0.991,11.247-6.452,11.412-12.967l0.345-13.612  c0.113-4.451,2.435-8.535,6.165-10.966c4.943-3.22,9.589-6.932,13.854-11.1c3.177-3.104,7.658-4.473,12.017-3.622l13.345,2.608  c6.396,1.25,12.768-2.26,15.13-8.333l10.097-25.954c2.362-6.073,0.037-12.966-5.522-16.367l-11.6-7.096  C458.947,291.919,456.568,287.881,456.324,283.447z M350.674,333.65c-10.043-3.404-18.168-9.762-23.779-17.74  c-8.912-12.655-11.519-29.394-5.486-44.902c6.033-15.508,19.267-26.087,34.392-29.39c0.002-0.005-0.003-0.007-0.003-0.007  c8.871-1.941,18.404-1.377,27.509,2.165c25.189,9.799,37.368,38.593,26.524,63.623C400.016,330.054,374.059,341.578,350.674,333.65z  " data-original="#45B8C4" class="" data-old_color="#45B8C4"/></g> </svg>
