<?xml version="1.0"?>
<svg xmlns="http://www.w3.org/2000/svg" xmlns:xlink="http://www.w3.org/1999/xlink" version="1.1" id="Layer_1" x="0px" y="0px" viewBox="0 0 512 512" style="enable-background:new 0 0 512 512;" xml:space="preserve" width="512px" height="512px" class=""><g><polygon style="fill:#ABB9C6;" points="346.4,478.938 165.605,478.938 178.512,448.737 183.427,437.253 194.153,412.162   317.852,412.162 328.578,437.253 333.492,448.737 " data-original="#ABB9C6"/><polygon style="fill:#93A0AA;" points="328.578,437.253 183.427,437.253 194.153,412.162 317.852,412.162 " data-original="#93A0AA"/><path style="fill:#B6C7D3;" d="M393.462,490.425H118.535l0,0c9.791-14.369,26.054-22.967,43.442-22.967h188.043  C367.408,467.458,383.67,476.056,393.462,490.425L393.462,490.425z" data-original="#B6C7D3" class=""/><path style="fill:#ABB9C6;" d="M512,55.095v326.991c0,18.511-14.997,33.52-33.509,33.52H33.509C14.997,415.606,0,400.597,0,382.086  V55.095c0-18.511,14.997-33.52,33.509-33.52h444.983C497.003,21.575,512,36.584,512,55.095z" data-original="#ABB9C6"/><path style="fill:#C5D6E2;" d="M512,55.095v326.991c0,18.511-14.997,33.52-33.509,33.52H180.898l24.552-59.875L342.47,21.575  h136.021C497.003,21.575,512,36.584,512,55.095z" data-original="#C5D6E2" class=""/><path style="fill:#93A0AA;" d="M256.002,393.214c-3.448,0-6.634-2.135-7.958-5.317c-1.465-3.521-0.359-7.694,2.622-10.058  c6.24-4.949,15.53,0.968,13.723,8.703C263.488,390.388,259.968,393.214,256.002,393.214z" data-original="#93A0AA"/><path style="fill:#B8E9F2;" d="M511.999,55.095v300.636H0V55.095c0-18.511,14.997-33.52,33.509-33.52h444.983  C497.003,21.575,511.999,36.584,511.999,55.095" data-original="#B8E9F2"/><path style="fill:#D4F7FC;" d="M511.999,55.095v300.636H205.45L342.47,21.575h136.021C497.003,21.575,511.999,36.584,511.999,55.095  " data-original="#D4F7FC" class=""/><polyline style="fill:#D3D3D3;" points="422.14,107.127 422.14,323.451 140.566,323.451 140.566,107.127 422.14,107.127 " data-original="#D3D3D3"/><polyline style="fill:#D84545;" points="422.141,107.131 140.564,107.131 140.564,160.353 422.141,160.353 422.141,107.131 " data-original="#D84545"/><polyline style="fill:#FFFFFF" points="371.441,56.439 371.441,272.764 89.867,272.764 89.867,56.439 371.441,56.439 " data-original="#FFFFFF" class="active-path"/><polyline style="fill:#F75757;" points="371.441,56.439 371.441,109.653 89.867,109.653 89.867,56.439 371.441,56.439 " data-original="#F75757"/><path style="fill:#D4F7FC;" d="M114.679,91.12c-3.599,0-6.899-2.33-8.111-5.715c-1.232-3.445-0.09-7.388,2.774-9.66  c6.206-4.923,15.504,0.921,13.73,8.645C122.181,88.265,118.68,91.12,114.679,91.12z" data-original="#D4F7FC" class=""/><path style="fill:#93C93F;" d="M165.16,91.12c-7.91,0-11.552-10.254-5.456-15.267c5.913-4.862,14.9,0.192,14.002,7.707  C173.198,87.82,169.446,91.12,165.16,91.12z" data-original="#93C93F"/><path style="fill:#E8D358;" d="M139.92,91.12c-3.822,0-7.29-2.633-8.294-6.318c-0.936-3.435,0.354-7.163,3.237-9.263  c6.302-4.585,15.211,1.34,13.443,8.91C147.405,88.3,143.883,91.12,139.92,91.12z" data-original="#E8D358"/><g>
	<path style="fill:#D4F7FC;" d="M310.849,91.119c-4.794,0-9.59,0-14.384,0c-11.04,0-22.08,0-33.122,0c-12.468,0-24.936,0-37.404,0   c-9.096,0-18.191,0-27.287,0c-1.748,0-3.498,0.021-5.246,0c-2.762-0.033-5.347-1.199-7.03-3.429   c-2.691-3.566-2.137-8.756,1.229-11.683c2.351-2.044,5.056-2.112,7.924-2.112c2.991,0,5.983,0,8.975,0c10.557,0,21.113,0,31.67,0   c12.588,0,25.176,0,37.764,0c9.738,0,19.477,0,29.215,0c2.316,0,4.631,0,6.947,0c0.837,0,1.654,0.006,2.484,0.176   c4.31,0.882,7.309,5.029,6.825,9.396C318.933,87.769,315.176,91.119,310.849,91.119" data-original="#D4F7FC" class=""/>
	<path style="fill:#D4F7FC;" d="M478.491,21.575H342.47l-14.296,34.864h43.266v50.688h50.698l0.001,0.005v53.222l-0.001,163.097   H218.687l-13.237,32.281H512V55.095C511.999,36.584,497.003,21.575,478.491,21.575" data-original="#D4F7FC" class=""/>
</g><path style="fill:#E6E6E6;" d="M422.141,160.353h-50.7v112.41h-131.97l-20.784,50.688H422.14V160.353 M422.14,107.127h-50.698v0.005  h50.7L422.14,107.127" data-original="#E6E6E6" class=""/><polyline style="fill:#DE6868;" points="422.141,107.131 422.141,107.131 371.441,107.131 371.441,109.653 371.441,160.353   422.141,160.353 422.141,107.131 " data-original="#DE6868" class=""/><polyline style="fill:#FFFFFF" points="371.441,109.653 306.355,109.653 239.471,272.764 371.441,272.764 371.441,160.353   371.441,109.653 " data-original="#FFFFFF" class="active-path"/><path style="fill:#F67676;" d="M371.441,56.439h-43.266l-9.365,22.837c0.535,1.296,0.761,2.731,0.599,4.189  c-0.346,3.115-2.409,5.73-5.162,6.937l-7.894,19.25h65.087v-2.522v-0.005V56.439" data-original="#F67676" class=""/><path style="fill:#D4F7FC;" d="M318.81,79.276l-4.562,11.126c2.754-1.207,4.816-3.822,5.162-6.937  C319.572,82.007,319.345,80.572,318.81,79.276" data-original="#D4F7FC" class=""/></g> </svg>
