<?xml version="1.0"?>
<svg xmlns="http://www.w3.org/2000/svg" id="Layer_1" enable-background="new 0 0 512 512" height="512px" viewBox="0 0 512 512" width="512px" class=""><g><g><g><path d="m190.152 429.026-12.863 48.346h157.422l-12.862-48.346-65.849-9z" fill="#e2cbe2" data-original="#E2CBE2" class=""/><path d="m366.802 485.114h-221.604c-4.276 0-7.742-3.466-7.742-7.742s3.466-7.742 7.742-7.742h221.605c4.276 0 7.742 3.466 7.742 7.742s-3.466 7.742-7.743 7.742z" fill="#dab9d8" data-original="#DAB9D8" class="" style="fill:#DAB9D8" data-old_color="#dab9d8"/><path d="m512 321.051v-263.169c0-17.119-13.878-30.996-30.996-30.996h-450.008c-17.118 0-30.996 13.878-30.996 30.996v263.169l256 9z" fill="#8bcaff" data-original="#8BCAFF" class="" style="fill:#C7EBFF" data-old_color="#8bcaff"/><path d="m0 339.632 256 9 256-9v-18.581h-512z" fill="#6cc4ff" data-original="#6CC4FF" class="active-path" style="fill:#FFCE00" data-old_color="#6cc4ff"/><path d="m321.849 429.026-4.944-18.581-62.859-9-58.951 9-4.944 18.581z" fill="#dab9d8" data-original="#DAB9D8" class="" style="fill:#DAB9D8" data-old_color="#dab9d8"/><path d="m154.705 74.813v49.257c0 2.85 2.311 5.161 5.161 5.161h49.257c3.022 0 5.429-2.589 5.149-5.598-2.651-28.573-25.396-51.318-53.969-53.969-3.009-.28-5.598 2.127-5.598 5.149z" fill="#ff4755" data-original="#FF4755" class=""/><path d="m117.802 99.574c-31.342 2.896-55.678 29.968-54.186 62.395 1.41 30.649 26.286 55.525 56.935 56.935 32.427 1.492 59.499-22.844 62.395-54.186.277-3.001-2.135-5.575-5.148-5.575h-49.26c-2.85 0-5.161-2.311-5.161-5.161v-49.26c0-3.013-2.574-5.425-5.575-5.148z" fill="#ffe27a" data-original="#FFE27A" class="" style="fill:#005DA4" data-old_color="#ffe27a"/><path d="m30.997 400.865h450.007c24.126 0 30.996-22.878 30.996-39.996v-21.236h-512v21.236c0 17.118 5.818 39.996 30.997 39.996z" fill="#ecdaec" data-original="#ECDAEC" class="" style="fill:#ECDAEC"/><path d="m481.004 391.865h-450.008c-17.118 0-30.996-13.878-30.996-30.997v18.581c0 17.119 13.878 30.996 30.996 30.996h450.007c17.119 0 30.996-13.878 30.996-30.996v-18.581c.001 17.119-13.877 30.997-30.995 30.997z" fill="#e2cbe2" data-original="#E2CBE2" class=""/></g><g><g fill="#ff4755"><path d="m238.531 240.36v44.155c0 4.284 3.473 7.757 7.757 7.757 4.285 0 7.757-3.473 7.757-7.757v-44.155c0-4.284-3.472-7.757-7.757-7.757-4.284 0-7.757 3.473-7.757 7.757z" data-original="#FF4755" class=""/><path d="m272.288 218.905v65.611c0 4.284 3.473 7.757 7.757 7.757 4.285 0 7.757-3.473 7.757-7.757v-65.611c0-4.284-3.473-7.757-7.757-7.757-4.285 0-7.757 3.473-7.757 7.757z" data-original="#FF4755" class=""/><path d="m306.043 190.889v93.626c0 4.284 3.472 7.757 7.757 7.757s7.757-3.473 7.757-7.757v-93.626c0-4.284-3.473-7.757-7.757-7.757s-7.757 3.473-7.757 7.757z" data-original="#FF4755" class=""/><path d="m347.557 197.756c-4.285 0-7.757 3.473-7.757 7.757v79.002c0 4.284 3.473 7.757 7.757 7.757 4.285 0 7.757-3.473 7.757-7.757v-79.002c0-4.284-3.473-7.757-7.757-7.757z" data-original="#FF4755" class=""/><path d="m373.556 177.588v106.928c0 4.284 3.472 7.757 7.757 7.757s7.757-3.473 7.757-7.757v-106.928c0-4.284-3.473-7.757-7.757-7.757s-7.757 3.473-7.757 7.757z" data-original="#FF4755" class=""/><path d="m415.069 188.448c-4.284 0-7.757 3.473-7.757 7.757v88.311c0 4.284 3.473 7.757 7.757 7.757 4.285 0 7.757-3.473 7.757-7.757v-88.311c0-4.284-3.473-7.757-7.757-7.757z" data-original="#FF4755" class=""/><path d="m448.825 150.367c-4.285 0-7.757 3.473-7.757 7.757v126.392c0 4.284 3.472 7.757 7.757 7.757s7.757-3.473 7.757-7.757v-126.392c0-4.284-3.472-7.757-7.757-7.757z" data-original="#FF4755" class=""/></g><path d="m453.423 99.342c-3.451-2.54-8.306-1.801-10.846 1.65l-29.183 39.657-27.518-20.021c-3.15-2.294-7.517-1.891-10.197.94l-28.97 30.606-28.214-21.451c-2.939-2.234-7.042-2.088-9.815.347l-67.512 59.307c-3.218 2.827-3.535 7.729-.708 10.947 1.533 1.746 3.676 2.638 5.831 2.638 1.818 0 3.643-.635 5.117-1.929l62.747-55.121 28.707 21.826c3.154 2.398 7.606 2.034 10.329-.842l29.07-30.712 28.245 20.55c3.448 2.51 8.28 1.763 10.811-1.675l33.756-45.871c2.539-3.451 1.8-8.306-1.65-10.846z" fill="#ffe27a" data-original="#FFE27A" class="" style="fill:#005DA4" data-old_color="#ffe27a"/><g fill="#dab9d8"><path d="m168.456 244.372h-84.205c-4.285 0-7.757 3.473-7.757 7.757s3.473 7.757 7.757 7.757h84.205c4.285 0 7.757-3.473 7.757-7.757s-3.472-7.757-7.757-7.757z" data-original="#DAB9D8" class="" style="fill:#DAB9D8" data-old_color="#DAB9D8"/><path d="m168.456 276.758h-84.205c-4.285 0-7.757 3.473-7.757 7.757s3.473 7.757 7.757 7.757h84.205c4.285 0 7.757-3.473 7.757-7.757s-3.472-7.757-7.757-7.757z" data-original="#DAB9D8" class="" style="fill:#DAB9D8" data-old_color="#DAB9D8"/></g></g></g></g> </svg>
